<?xml version="1.0" encoding="utf-8"?>
<!-- Generator: Adobe Illustrator 22.0.1, SVG Export Plug-In . SVG Version: 6.00 Build 0)  -->
<svg version="1.1" id="Layer_1" xmlns="http://www.w3.org/2000/svg" xmlns:xlink="http://www.w3.org/1999/xlink" x="0px" y="0px"
	 viewBox="0 0 500 500" style="enable-background:new 0 0 500 500;" xml:space="preserve">
<style type="text/css">
	.st0{fill:#020202;}
	.st1{fill:none;}
</style>
<g>
	<path class="st0" d="M481.5,274.6c0,8.9-0.1,17.9,0.1,26.8c0.1,3.1-0.9,3.8-3.9,3.7c-9.7-0.2-19.5,0.1-29.2-0.2
		c-3.6-0.1-4.8,0.8-5.2,4.7c-3,30.2-9.2,59.6-23.5,86.8c-15.3,29.2-37,51.5-69.3,61.8c-40.5,12.8-83-5.4-99.3-42.3
		c-9.2-20.9-7.8-41.9,0.7-62.5c23.1-55.9,64.6-90.5,123.4-104.2c5.3-1.2,6.5-3.1,6.2-8.1c-1.6-24.4-16-37.9-42.4-39.8
		c-12.7-0.9-23.1,4-32.7,11.3c-15.3,11.6-27.4,26.3-39.3,41c-17.8,22.1-34.6,45.1-54.9,65.1c-10.9,10.7-22.2,21-34.8,29.6
		c-36.8,25.2-86.3,17.9-110.9-16.4c-19.7-27.5-25.1-67.8-0.1-101.8c15-20.4,34.1-36.5,54.5-51c12.4-8.9,25.3-17,37.8-25.8
		c13.6-9.6,24.3-21.5,28.1-38.3c0.6-2.6,0.6-5.2,0.4-7.8c-0.7-7.1-5.4-11-12.5-10.6c-6.2,0.4-11.5,3.1-16.7,6.2
		c-9.4,5.7-17,13.5-23.8,22.1c-11,13.9-23.9,25.6-39.7,34c-23.8,12.7-48.1,12.2-72.9,3.2c-2.1-0.8-2.9-1.9-2.9-4.3
		c0.1-17.2,0.1-34.4,0-51.7c0-3,1-3.2,3.4-2.4c8.5,2.6,17.2,4.8,26.1,5.6c19.1,1.7,34.2-5.7,46.1-20.3c9.9-12.1,20.5-23.4,32.4-33.5
		c25.1-21.2,67.4-23.3,91.6-8.8c18.3,10.9,27.9,27,30.3,47.8c3.2,27.3-6.5,50.1-24.3,70.4c-17.6,20-38.7,35.4-60.5,50.2
		c-11.7,7.9-23.2,16.1-33.1,26.3c-7.6,7.8-11.9,16.8-11,28c1.1,13.8,15.2,24.1,28.6,20.4c9-2.5,16.2-7.9,22.4-14.9
		c22-24.6,42.4-50.5,63.3-75.9c16.7-20.4,35-39.3,58-53c30.4-18.1,61.7-20.9,93.5-4.2c19.8,10.5,32.9,27.5,42.7,47.3
		c8.1,16.3,12.9,33.6,15.2,51.5c0.4,2.9,1.4,3.3,3.9,3.3c10.2-0.1,20.5,0.1,30.7-0.1c3-0.1,3.9,0.8,3.8,3.8
		C481.3,256.7,481.5,265.7,481.5,274.6z M385,306.9c-1.9-0.6-3.2,0.2-4.6,0.7c-19.6,6.3-36.3,17.1-49.9,32.4
		c-10,11.3-18.4,23.6-21.8,38.5c-3,13.4,8.4,24.6,21.8,21.8c7-1.5,12.9-5.2,18.1-9.9c16.7-14.8,25.5-34.1,31.2-55
		C382.5,326,384.4,316.5,385,306.9z"/>
</g>
<rect class="st1" width="500" height="500"/>
</svg>
