<?xml version="1.0" encoding="UTF-8"?>
<svg id="Layer_2" data-name="Layer 2" xmlns="http://www.w3.org/2000/svg" viewBox="0 0 566 152.68">
  <defs>
    <style>
      .cls-1 {
        fill: #111315;
        fill-rule: evenodd;
        stroke-width: 0px;
      }
    </style>
  </defs>
  <g id="Layer_1-2" data-name="Layer 1">
    <path class="cls-1" d="M124.62,21.88l.48.48h0c9.51,9.51,7.13,29.49-7.13,51.37l27.59,27.59-.95,2.38c-4.76,9.04-10.94,17.12-18.55,23.78-9.99,9.04-22.35,15.22-35.2,18.55h-3.81c-.48,0-1.43.48-2.38.48h-.95c-.48,0-1.43,0-1.9.48-10.94,1.43-21.88,0-32.34-3.81-10.46-3.81-19.98-9.51-27.59-17.12l-.48-.48c-9.51-9.51-7.13-29.49,7.13-51.37L0,47.09l.95-2.38c4.76-9.04,10.94-17.12,18.55-23.78,8.09-6.66,17.12-12.37,27.11-15.7,2.38-.95,4.76-1.43,7.13-2.38,1.9-.48,3.81-.95,5.71-1.43.48,0,1.43-.48,2.38-.48C73.25-.95,84.66,0,95.6,3.81c10.94,3.81,20.45,9.99,29.01,18.07ZM115.1,22.83h0c-9.51-2.85-24.26,1.9-39.95,12.37,11.89-3.33,23.78-1.43,30.92,5.71,7.13,7.13,9.04,18.07,6.18,29.49,0,.48-.48,1.43-.48,1.9,12.84-19.5,17.12-37.57,9.04-45.66l-.48-.48h-.48l-.48-.48h0c-1.43-1.43-2.85-2.38-4.28-2.85ZM108.44,66.59c-1.43,9.99-7.13,19.98-15.22,28.06-8.09,8.09-18.07,13.79-28.06,15.22-9.51,1.43-17.12-.48-22.35-5.71-5.23-5.23-7.13-13.32-5.71-22.35,1.43-9.99,7.13-19.98,15.22-28.06h0c8.09-8.09,18.07-13.79,28.06-15.22,9.51-1.43,17.12.48,22.35,5.71,5.23,5.23,7.61,13.32,5.71,22.35h0ZM24.73,26.16c-6.66,5.71-11.89,12.37-15.7,19.98h0l23.78,23.78c1.9-2.85,3.81-5.71,6.18-8.09.95-.95,1.43-1.9,2.38-2.85l.48-.48.95-1.43h0v-.48h0l.48-.48.95-.95h0l.48-.48.48-.48h0l.48-.48.48-.48h0l.48-.48.95-.48.48-.48.48-.48c5.23-5.23,10.46-9.99,16.65-14.27l.95-.48h0l.95-.48c.95-.48,1.9-1.43,2.38-1.9.95-.48,1.9-1.43,2.85-1.9,12.37-8.09,24.73-13.32,34.72-14.27-13.32-8.09-29.01-10.94-44.71-8.56-.48,0-1.43,0-1.9.48h-.95c-3.81,0-7.13.95-10.46,1.9-9.04,3.33-17.12,8.09-24.26,14.27ZM25.68,123.66c1.43.95,2.85,1.9,4.76,2.38h0c9.51,2.85,24.26-1.9,39.95-12.37-11.89,3.33-23.78,1.43-30.92-5.71s-9.04-18.07-6.18-29.49c0-.48,0-1.43,0-1.9-12.84,19.5-17.12,37.57-9.04,45.66l.48.48q.95.48.95.95ZM136.51,102.74h0c-4.28,7.61-9.51,13.79-15.7,19.5-9.51,8.56-20.93,14.27-33.29,17.12h-.48c-.48,0-.95,0-1.43.48h-.95c-.48,0-1.43.48-1.9.48h-2.38c-14.74,1.43-29.01-1.43-41.86-9.04,9.51-.95,21.4-5.71,33.29-13.32l.48-.48.48-.48.95-.48h0l1.9-1.43c.95-.48,1.9-1.43,2.38-1.9s.95-.95,1.43-.95c5.71-4.28,11.42-9.04,16.65-14.27l.48-.48h0l.48-.48.48-.48h0l.48-.48.48-.48.48-.48h0l-.48.48.48-.48h0l.48-.48h0l.95-.95.48-.48h0l.48-.48h0c.48-.48.95-.95.95-1.43l.48-.48c.48-.48.95-1.43,1.9-1.9l.48-.95v-.48l.95-.95q.48-.48.48-.95c1.43-1.9,2.85-3.81,4.28-5.71l25.68,22.83ZM185.5,30.92h13.79v85.61h-13.79V30.92ZM275.87,30.92h-12.84v85.61h12.84V30.92ZM553.16,30.92h12.84v85.61h-12.84V30.92ZM494.66,30.92l-32.82,85.61h14.27l8.09-21.88h39.48l8.09,21.88h14.27l-32.82-85.61h-18.55ZM488.95,81.81l14.74-39.48,14.74,39.48h-29.49ZM286.81,48.04h12.84v68.49h-12.84V48.04ZM299.65,30.92h-12.84v10.94h12.84v-10.94ZM323.43,56.12c4.28-4.76,12.37-8.09,20.45-8.09,22.83,0,32.82,14.74,32.82,32.82v35.67h-12.84v-35.67c0-11.42-6.18-20.45-20.45-20.45-10.46,0-19.5,5.71-20.45,17.12v38.53h-12.84V48.04h13.32v8.09ZM419.51,48.04c8.09,0,15.7,2.85,21.88,8.09v-8.09h12.84v71.34c0,18.55-14.27,33.29-31.87,33.29h-3.81c-15.7,0-28.54-11.42-31.39-26.64h13.32c2.38,8.09,9.99,14.27,18.55,14.27h3.33c10.46,0,19.5-9.04,19.5-20.45v-7.13c-6.18,5.23-13.79,8.09-21.88,8.09-19.03,0-34.72-16.17-34.72-36.15-.48-20.45,15.22-36.62,34.25-36.62ZM419.51,107.97c-11.89,0-21.88-10.46-21.88-23.31s9.99-23.78,21.88-23.78,21.88,10.46,21.88,23.78-9.99,23.31-21.88,23.31ZM237.34,30.92h17.12l-38.05,42.33,40.43,43.28h-17.6l-39.95-43.28,38.05-42.33Z"/>
  </g>
</svg>