<?xml version="1.0" encoding="UTF-8"?>
<svg id="Layer_2" data-name="Layer 2" xmlns="http://www.w3.org/2000/svg" xmlns:xlink="http://www.w3.org/1999/xlink" viewBox="0 0 254 244.77">
  <defs>
    <style>
      .cls-1 {
        fill: #fff3b8;
        opacity: .6;
      }

      .cls-1, .cls-2, .cls-3 {
        isolation: isolate;
      }

      .cls-1, .cls-2, .cls-4 {
        stroke-width: 0px;
      }

      .cls-2 {
        fill: #fcbf49;
        opacity: .8;
      }

      .cls-3 {
        fill: none;
        opacity: .5;
        stroke: #f77f00;
        stroke-width: 2px;
      }

      .cls-5 {
        fill: url(#linear-gradient);
        stroke: #fcbf49;
        stroke-width: 8px;
      }

      .cls-4 {
        fill: url(#linear-gradient-2);
      }
    </style>
    <linearGradient id="linear-gradient" x1="-380.98" y1="484.68" x2="-380.19" y2="483.89" gradientTransform="translate(117996.43 144489.67) scale(309.71 -298.1)" gradientUnits="userSpaceOnUse">
      <stop offset="0" stop-color="#ffe066"/>
      <stop offset=".5" stop-color="#ffd23f"/>
      <stop offset="1" stop-color="#fcbf49"/>
    </linearGradient>
    <linearGradient id="linear-gradient-2" x1="-380.65" y1="484.47" x2="-380.65" y2="483.68" gradientTransform="translate(77805 34069.09) scale(204 -70)" gradientUnits="userSpaceOnUse">
      <stop offset="0" stop-color="#f77f00" stop-opacity=".3"/>
      <stop offset="1" stop-color="#d62828" stop-opacity=".1"/>
    </linearGradient>
  </defs>
  <g id="Layer_1-2" data-name="Layer 1">
    <path class="cls-5" d="M32.37,60.73C5.89,90.39-2.05,122.16,8.54,156.05c10.59,33.89,31.77,60.37,63.54,79.43,42.36,10.59,84.72,5.3,127.08-15.89,42.36-21.18,58.25-52.95,47.66-95.31-10.59-52.95-37.07-90.02-79.43-111.2C125.03-8.1,80.02,7.78,32.37,60.73"/>
    <path class="cls-1" d="M56.2,76.62c-21.18,19.06-29.12,40.24-23.83,63.54,5.3,23.3,21.18,39.18,47.66,47.66,26.48,5.3,55.6,2.65,87.37-7.94,31.77-10.59,45.01-29.12,39.71-55.6-5.3-37.07-23.83-63.54-55.6-79.43-31.77-15.89-63.54-5.3-95.31,31.77"/>
    <path class="cls-4" d="M72.08,203.7c31.77,10.59,68.84,10.59,111.2,0,42.36-10.59,58.25-26.48,47.66-47.66-10.59,10.59-26.48,21.18-47.66,31.77-21.18,10.59-58.25,15.89-111.2,15.89"/>
    <circle class="cls-2" cx="103.85" cy="124.28" r="9.53"/>
    <circle class="cls-2" cx="135.62" cy="140.16" r="9.53"/>
    <circle class="cls-2" cx="167.39" cy="124.28" r="9.53"/>
    <path class="cls-3" d="M103.85,124.28l31.77,15.89,31.77-15.89"/>
  </g>
</svg>